<?xml version="1.0" standalone="no"?><!DOCTYPE svg PUBLIC "-//W3C//DTD SVG 1.1//EN" "http://www.w3.org/Graphics/SVG/1.1/DTD/svg11.dtd"><svg t="1629653011632" class="icon" viewBox="0 0 1024 1024" version="1.1" xmlns="http://www.w3.org/2000/svg" p-id="2090" xmlns:xlink="http://www.w3.org/1999/xlink" width="200" height="200"><defs><style type="text/css"></style></defs><path d="M800.5 512c0 159.3-129.1 288.5-288.5 288.5-99.6 0-187.4-50.4-239.2-127.2-31.1-46-49.3-101.5-49.3-161.3 0-159.3 129.1-288.5 288.5-288.5S800.5 352.7 800.5 512z" fill="#FC355D" p-id="2091"></path><path d="M556.9 512l60.9-60.9c12.4-12.4 12.4-32.5 0-44.9-12.4-12.4-32.5-12.4-44.9 0L512 467.1l-60.9-60.9c-12.4-12.4-32.5-12.4-44.9 0-12.4 12.4-12.4 32.5 0 44.9l60.9 60.9-60.9 60.9c-12.4 12.4-12.4 32.5 0 44.9 6.2 6.2 14.3 9.3 22.5 9.3s16.3-3.1 22.5-9.3l60.9-60.9 60.9 60.9c6.2 6.2 14.3 9.3 22.5 9.3 8.1 0 16.3-3.1 22.5-9.3 12.4-12.4 12.4-32.5 0-44.9L556.9 512z" fill="#FFFFFF" p-id="2092"></path></svg>